# xmcd
#
# Track frame offsets:
#  150
#  18478
#  35485
#  57191
#  72945
#  91164
#  109984
#  128852
#  144174
#  160134
#
# Disc length: 2478 seconds
#
# Revision: 0
# Processed by: cddbd v1.5.2PL0 Copyright (c) Steve Scherf et al.
# Submitted via: Collectorz.com_Music_Collector 6.11
#
DISCID=8109ac0a
DTITLE=Various Artist - 1996 Rock On Disc 2
DYEAR=1999
DGENRE=90's Compilations
TTITLE0=Robert Miles - Children
TTITLE1=Real McCoy - Automatic Lover
TTITLE2=Gary Barlow - Forever Love
TTITLE3=Daisy Dee - Crazy 96
TTITLE4=La Bouche - I Love To Love
TTITLE5=DJ Barren Briais vs Peewee Ferris - I Feel It
TTITLE6=3T - Anything
TTITLE7=The Presidents Of The United States Of America - Kitty
TTITLE8=Sash! featuring Tina Cousins - Ecuador
TTITLE9=S'Express - Theme from S'Express
EXTD=
EXTT0=
EXTT1=
EXTT2=
EXTT3=
EXTT4=
EXTT5=
EXTT6=
EXTT7=
EXTT8=
EXTT9=
PLAYORDER=
